<svg viewBox="49.199768 50.769043 524.6944 530.6098" xmlns="http://www.w3.org/2000/svg">
<path d="M555.1377,389.78394 L555.1377,259.47815 L233.59462,259.47815 L233.59462,389.78394 L555.1377,389.78394 z" fill="white" fill-opacity="1" stroke="blue" stroke-width="1"/>
<path d="M379.66064,290.98096 L379.66064,114.11572 L201.46974,114.11572 L201.46974,290.98096 L379.66064,290.98096 z" fill="white" fill-opacity="1" stroke="blue" stroke-width="1"/>
<path d="M271.63892,359.10132 L271.63892,123.522736 L72.56128,123.522736 L72.56128,359.10132 L271.63892,359.10132 z" fill="white" fill-opacity="1" stroke="blue" stroke-width="1"/>
<path d="M360.84784,247.1727 L360.84784,178.58243 L94.909546,178.58243 L94.909546,247.1727 L360.84784,247.1727 z" fill="white" fill-opacity="1" stroke="blue" stroke-width="1"/>
<path d="M116.0954,317.6314 L116.0954,315.11945 L59.199768,315.11945 L59.199768,317.6314 L116.0954,317.6314 z" fill="white" fill-opacity="1" stroke="blue" stroke-width="1"/>
<path d="M548.07043,293.6335 L548.07043,120.66095 L258.0608,120.66095 L258.0608,293.6335 L548.07043,293.6335 z" fill="white" fill-opacity="1" stroke="blue" stroke-width="1"/>
<path d="M305.2696,531.6304 L305.2696,253.4107 L253.01225,253.4107 L253.01225,531.6304 L305.2696,531.6304 z" fill="white" fill-opacity="1" stroke="blue" stroke-width="1"/>
<path d="M359.88647,355.29016 L359.88647,255.19086 L134.44485,255.19086 L134.44485,355.29016 L359.88647,355.29016 z" fill="white" fill-opacity="1" stroke="blue" stroke-width="1"/>
<path d="M557.41956,322.0326 L557.41956,103.070435 L339.9414,103.070435 L339.9414,322.0326 L557.41956,322.0326 z" fill="white" fill-opacity="1" stroke="blue" stroke-width="1"/>
<path d="M513.5139,448.50986 L513.5139,410.78683 L497.09332,410.78683 L497.09332,448.50986 L513.5139,448.50986 z" fill="white" fill-opacity="1" stroke="blue" stroke-width="1"/>
<path d="M526.7875,562.98193 L526.7875,115.17682 L512.0509,115.17682 L512.0509,562.98193 L526.7875,562.98193 z" fill="white" fill-opacity="1" stroke="blue" stroke-width="1"/>
<path d="M261.12634,571.37885 L261.12634,60.76906 L201.15375,60.76906 L201.15375,571.37885 L261.12634,571.37885 z" fill="white" fill-opacity="1" stroke="blue" stroke-width="1"/>
<path d="M537.27826,122.545105 L537.27826,62.13768 L358.90955,62.13768 L358.90955,122.545105 L537.27826,122.545105 z" fill="white" fill-opacity="1" stroke="blue" stroke-width="1"/>
<path d="M385.7932,419.574 L385.7932,199.83078 L90.78339,199.83078 L90.78339,419.574 L385.7932,419.574 z" fill="white" fill-opacity="1" stroke="blue" stroke-width="1"/>
<path d="M142.42235,341.93225 L142.42235,67.647644 L95.909546,67.647644 L95.909546,341.93225 L142.42235,341.93225 z" fill="white" fill-opacity="1" stroke="blue" stroke-width="1"/>
<path d="M419.07813,566.87146 L419.07813,152.69403 L102.06006,152.69403 L102.06006,566.87146 L419.07813,566.87146 z" fill="white" fill-opacity="1" stroke="blue" stroke-width="1"/>
<path d="M442.20715,535.6931 L442.20715,344.28815 L329.0434,344.28815 L329.0434,535.6931 L442.20715,535.6931 z" fill="white" fill-opacity="1" stroke="blue" stroke-width="1"/>
<path d="M385.13907,450.29126 L385.13907,143.45839 L186.19406,143.45839 L186.19406,450.29126 L385.13907,450.29126 z" fill="white" fill-opacity="1" stroke="blue" stroke-width="1"/>
<path d="M563.89417,415.87488 L563.89417,307.5083 L527.97925,307.5083 L527.97925,415.87488 L563.89417,415.87488 z" fill="white" fill-opacity="1" stroke="blue" stroke-width="1"/>
<path d="M263.98358,493.27835 L263.98358,355.73477 L63.667236,355.73477 L63.667236,493.27835 L263.98358,493.27835 z" fill="white" fill-opacity="1" stroke="blue" stroke-width="1"/>
</svg>